<?xml version="1.0" encoding="UTF-8"?>
<!DOCTYPE svg PUBLIC "-//W3C//DTD SVG 1.1//EN" "http://www.w3.org/Graphics/SVG/1.1/DTD/svg11.dtd">
<!-- Creator: CorelDRAW X6 -->
<svg xmlns="http://www.w3.org/2000/svg" xml:space="preserve" width="50mm" height="50.9836mm" version="1.1" style="shape-rendering:geometricPrecision; text-rendering:geometricPrecision; image-rendering:optimizeQuality; fill-rule:evenodd; clip-rule:evenodd"
viewBox="0 0 16666 16993"
 xmlns:xlink="http://www.w3.org/1999/xlink">
 <defs>
  <style type="text/css">
   <![CDATA[
    .fil0 {fill:#3F7BBC}
    .fil1 {fill:#3F7BBC;fill-rule:nonzero}
   ]]>
  </style>
 </defs>
 <g id="Слой_x0020_1">
  <metadata id="CorelCorpID_0Corel-Layer"/>
  <g id="_434773336">
   <path class="fil0" d="M5473 8200c0,-660 341,-1270 760,-1727 158,-174 526,-408 744,-515 899,-441 2079,-296 2849,376 71,62 101,69 170,138 947,947 1026,2581 137,3594 -62,71 -68,100 -137,170 -191,190 -501,393 -746,513 -470,231 -767,245 -1290,245 -967,0 -1811,-648 -2242,-1504 -235,-469 -245,-764 -245,-1290zm-1413 154c0,828 356,1958 929,2571 363,388 335,395 795,741 1519,1142 3810,927 5193,-449 740,-735 1190,-1800 1190,-2894 0,-856 -400,-1986 -944,-2556 -98,-102 -143,-174 -246,-277 -2572,-2557 -6917,-702 -6917,2864z"/>
   <path class="fil0" d="M11307 4147c0,740 821,1245 1468,916 1042,-529 515,-1929 -332,-1929 -495,0 -829,138 -1045,613 -32,73 -91,300 -91,400z"/>
   <path class="fil1" d="M4567 0l7531 0c1257,0 2399,514 3226,1341 828,828 1342,1970 1342,3226l0 7859c0,1257 -514,2399 -1342,3226 -827,828 -1969,1341 -3226,1341l-7531 0c-1256,0 -2398,-513 -3226,-1341 -827,-827 -1341,-1969 -1341,-3226l0 -7859c0,-1256 514,-2398 1341,-3226 828,-827 1970,-1341 3226,-1341zm7531 1027l-7531 0c-973,0 -1858,399 -2500,1040 -641,642 -1040,1527 -1040,2500l0 7859c0,973 399,1858 1040,2500 642,642 1527,1040 2500,1040l7531 0c973,0 1858,-398 2500,-1040 642,-642 1040,-1527 1040,-2500l0 -7859c0,-973 -398,-1858 -1040,-2500 -642,-641 -1527,-1040 -2500,-1040z"/>
  </g>
 </g>
</svg>
