<?xml version="1.0" encoding="UTF-8"?>
<!DOCTYPE svg PUBLIC "-//W3C//DTD SVG 1.1//EN" "http://www.w3.org/Graphics/SVG/1.1/DTD/svg11.dtd">
<!-- Creator: CorelDRAW X6 -->
<svg xmlns="http://www.w3.org/2000/svg" xml:space="preserve" width="50mm" height="50.9836mm" version="1.1" style="shape-rendering:geometricPrecision; text-rendering:geometricPrecision; image-rendering:optimizeQuality; fill-rule:evenodd; clip-rule:evenodd"
viewBox="0 0 2525 2575"
 xmlns:xlink="http://www.w3.org/1999/xlink">
 <defs>
  <style type="text/css">
   <![CDATA[
    .fil1 {fill:#3F7BBC}
    .fil0 {fill:#3F7BBC;fill-rule:nonzero}
   ]]>
  </style>
 </defs>
 <g id="Слой_x0020_1">
  <metadata id="CorelCorpID_0Corel-Layer"/>
  <g id="_434777440">
   <path class="fil0" d="M692 0l1141 0c191,0 364,78 489,203 126,126 203,299 203,489l0 1191c0,190 -77,363 -203,489 -125,125 -298,203 -489,203l-1141 0c-190,0 -363,-78 -489,-203 -125,-126 -203,-299 -203,-489l0 -1191c0,-190 78,-363 203,-489 126,-125 299,-203 489,-203zm1141 156l-1141 0c-147,0 -281,60 -379,157 -97,98 -157,232 -157,379l0 1191c0,147 60,281 157,379 98,97 232,157 379,157l1141 0c148,0 282,-60 379,-157 97,-98 158,-232 158,-379l0 -1191c0,-147 -61,-281 -158,-379 -97,-97 -231,-157 -379,-157z"/>
   <path class="fil1" d="M361 796c0,36 20,102 33,136 16,40 32,82 49,121l38 77c19,38 39,72 60,109 27,47 57,93 89,138 3,5 7,10 11,16l61 81c4,5 8,10 12,15 5,6 9,10 14,16l28 29c18,19 38,38 59,54 26,20 53,41 81,60l54 31c38,21 79,35 121,49 61,19 225,41 268,-7 12,-14 12,-37 12,-62l0 -148c0,-26 1,-47 17,-57 14,-9 46,-6 61,0 51,18 92,56 130,92 19,17 39,35 57,54 3,4 4,7 8,11l18 19c3,3 6,6 9,9l26 29c4,4 5,6 9,10 3,4 6,6 9,10 4,4 5,5 8,10 6,6 12,12 19,18 25,19 40,34 79,34l183 0c19,0 34,-4 46,-11 49,-28 4,-106 -19,-138l-38 -51c-7,-9 -13,-16 -20,-25 -4,-4 -6,-8 -10,-12l-21 -25c-29,-37 -65,-71 -98,-104 -105,-105 -92,-94 -25,-194l95 -144c37,-59 74,-120 103,-184 6,-14 21,-55 21,-74 0,-30 -24,-43 -52,-43l-198 0c-69,0 -79,65 -103,113 -31,61 -60,120 -97,177 -21,33 -42,66 -67,97 -4,5 -8,9 -12,15l-19 22c-3,3 -3,4 -6,8 -10,9 -34,32 -43,38 -11,8 -24,17 -41,17 -40,0 -29,-86 -29,-111l0 -284c0,-49 0,-92 -49,-92l-298 0c-23,0 -42,16 -45,38 -4,32 40,61 58,109 7,17 15,47 15,70l0 296c0,60 -34,60 -71,32 -13,-10 -27,-23 -37,-37 -3,-3 -4,-4 -7,-8 -31,-39 -58,-81 -84,-124 -8,-12 -14,-25 -21,-37 -4,-7 -7,-13 -11,-19 -15,-26 -31,-63 -44,-91 -20,-45 -40,-90 -55,-137 -15,-43 -31,-92 -86,-92l-196 0c-35,0 -59,16 -59,51z"/>
  </g>
 </g>
</svg>
