<?xml version="1.0" encoding="UTF-8"?>
<!DOCTYPE svg PUBLIC "-//W3C//DTD SVG 1.1//EN" "http://www.w3.org/Graphics/SVG/1.1/DTD/svg11.dtd">
<!-- Creator: CorelDRAW X6 -->
<svg xmlns="http://www.w3.org/2000/svg" xml:space="preserve" width="50mm" height="50.9836mm" version="1.1" style="shape-rendering:geometricPrecision; text-rendering:geometricPrecision; image-rendering:optimizeQuality; fill-rule:evenodd; clip-rule:evenodd"
viewBox="0 0 1174 1197"
 xmlns:xlink="http://www.w3.org/1999/xlink">
 <defs>
  <style type="text/css">
   <![CDATA[
    .fil0 {fill:#3F7BBC}
    .fil1 {fill:#3F7BBC;fill-rule:nonzero}
   ]]>
  </style>
 </defs>
 <g id="Слой_x0020_1">
  <metadata id="CorelCorpID_0Corel-Layer"/>
  <g id="_434774728">
   <path class="fil0" d="M314 578c0,-252 311,-381 491,-200 232,233 -52,604 -331,461 -4,-2 -29,-18 -29,-18 -15,0 -100,29 -113,35 19,-81 48,-84 22,-128 -26,-46 -40,-86 -40,-150zm-59 -18c0,172 54,171 43,214 -6,26 -20,57 -29,85 -8,25 -24,61 -26,86 28,-6 53,-16 81,-26 30,-10 58,-18 86,-27 51,-16 48,35 212,35 165,0 326,-161 326,-325 0,-116 -21,-184 -102,-265 -227,-228 -591,-46 -591,223z"/>
   <path class="fil0" d="M421 501c0,71 55,133 89,172 17,20 47,42 73,56 42,24 76,33 122,33 40,0 77,-43 77,-83 0,-18 -70,-49 -88,-54 -17,12 -30,31 -42,48 -51,-12 -125,-69 -136,-119 42,-62 41,-14 14,-109 -11,-38 -12,-33 -56,-33 -27,0 -53,56 -53,89z"/>
   <path class="fil1" d="M322 0l530 0c89,0 169,36 227,94 59,59 95,139 95,228l0 553c0,89 -36,169 -95,227 -58,59 -138,95 -227,95l-530 0c-89,0 -169,-36 -228,-95 -58,-58 -94,-138 -94,-227l0 -553c0,-89 36,-169 94,-228 59,-58 139,-94 228,-94zm530 72l-530 0c-69,0 -131,28 -176,74 -46,45 -74,107 -74,176l0 553c0,69 28,131 74,176 45,45 107,73 176,73l530 0c69,0 131,-28 176,-73 45,-45 73,-107 73,-176l0 -553c0,-69 -28,-131 -73,-176 -45,-46 -107,-74 -176,-74z"/>
  </g>
 </g>
</svg>
